<?xml version="1.0" encoding="utf-8"?>
<!-- Generator: Adobe Illustrator 24.3.0, SVG Export Plug-In . SVG Version: 6.00 Build 0)  -->
<svg version="1.1" id="Layer_1" xmlns="http://www.w3.org/2000/svg" xmlns:xlink="http://www.w3.org/1999/xlink" x="0px" y="0px"
	 viewBox="0 0 800 800" style="enable-background:new 0 0 800 800;" xml:space="preserve">
<style type="text/css">
	.st0{fill:#EF4745;}
	.st1{fill:#3F3D3E;}
	.st2{fill:#FFFFFF;}
	.st3{fill:#313791;}
</style>
<rect x="909" y="-14.3" class="st0" width="800" height="800"/>
<g>
	<path class="st1" d="M241.9,665.6l-43.1-83l0,0c-0.2-0.4-0.4-0.7-0.7-1l0,0c-0.3-0.3-0.5-0.6-0.8-0.8l-0.1-0.1
		c-0.3-0.2-0.5-0.4-0.8-0.5c-0.1-0.1-0.2-0.1-0.3-0.2c0,0-0.1,0-0.1-0.1c-0.2-0.1-0.5-0.2-0.7-0.3c-0.1-0.1-0.2-0.1-0.4-0.1
		c-0.3-0.1-0.6-0.1-0.8-0.2c-0.1,0-0.3-0.1-0.4-0.1c-0.3,0-0.5,0-0.7,0s-0.4,0-0.6,0c-0.2,0-0.4,0.1-0.6,0.1
		c-0.2,0.1-0.5,0.1-0.7,0.1H191c-0.2,0.1-0.3,0.1-0.5,0.2c-0.2,0.1-0.4,0.1-0.6,0.2c0,0-0.1,0-0.1,0.1c-0.2,0.1-0.4,0.2-0.5,0.3
		c-0.2,0.1-0.4,0.2-0.5,0.4c-0.1,0.1-0.2,0.2-0.3,0.3c-0.2,0.2-0.4,0.4-0.6,0.6c-0.1,0.1-0.1,0.2-0.2,0.3c-0.2,0.3-0.4,0.5-0.5,0.8
		l0,0l-43.1,82.9c-1.6,3.1-0.4,6.8,2.7,8.5c0.9,0.5,1.9,0.7,2.9,0.7c0.7,0,1.3-0.1,1.9-0.3c1.6-0.5,2.9-1.6,3.7-3.1l37.5-72.2
		l37.5,72.2c0.8,1.5,2.1,2.6,3.7,3.1c0.6,0.2,1.3,0.3,1.9,0.3c1,0,2-0.3,2.9-0.7c1.5-0.8,2.6-2.1,3.1-3.7
		C242.8,668.8,242.7,667.1,241.9,665.6z"/>
	<g>
		<path class="st1" d="M297.8,658.8c3.3,0,6-2.7,6-6v-61.7h61.1c3.3,0,6-2.7,6-6s-2.7-6-6-6h-67.1c-3.3,0-6,2.7-6,6v67.7
			C291.8,656.1,294.5,658.8,297.8,658.8z"/>
		<path class="st1" d="M364.9,662.9h-67.1c-3.3,0-6,2.7-6,6s2.7,6,6,6h67.1c3.3,0,6-2.7,6-6C371,665.6,368.3,662.9,364.9,662.9z"/>
	</g>
	<g>
		<path class="st1" d="M648.2,660.4h-81.4c-4,0-7.3,3.3-7.3,7.3s3.3,7.3,7.3,7.3h81.4c4,0,7.3-3.3,7.3-7.3S652.2,660.4,648.2,660.4z
			"/>
		<path class="st1" d="M566.8,634.3h53.4c4,0,7.3-3.3,7.3-7.3s-3.3-7.3-7.3-7.3h-53.4c-4,0-7.3,3.3-7.3,7.3S562.8,634.3,566.8,634.3
			z"/>
		<path class="st1" d="M566.8,593.6h81.4c4,0,7.3-3.3,7.3-7.3s-3.3-7.3-7.3-7.3h-81.4c-4,0-7.3,3.3-7.3,7.3S562.8,593.6,566.8,593.6
			z"/>
	</g>
	<g>
		<path class="st1" d="M428.7,579c-4,0-7.3,3.3-7.3,7.3v81.4c0,4,3.3,7.3,7.3,7.3s7.3-3.3,7.3-7.3v-81.4
			C436,582.3,432.7,579,428.7,579z"/>
		<path class="st1" d="M469.4,579c-4,0-7.3,3.3-7.3,7.3v64.1c0,4,3.3,7.3,7.3,7.3s7.3-3.3,7.3-7.3v-64.1
			C476.7,582.3,473.4,579,469.4,579z"/>
		<path class="st1" d="M510.1,579c-4,0-7.3,3.3-7.3,7.3v81.4c0,4,3.3,7.3,7.3,7.3c4,0,7.3-3.3,7.3-7.3v-81.4
			C517.4,582.3,514.1,579,510.1,579z"/>
	</g>
	<path class="st1" d="M651.2,504.3L486.3,186.5c-1.2-2.6-3.3-4.9-6-6.3c-0.3-0.2-0.6-0.3-0.9-0.4c0,0,0,0-0.1,0
		c-0.4-0.2-0.7-0.3-1.1-0.4c-0.1,0-0.1,0-0.1-0.1c-0.4-0.1-0.7-0.2-1.1-0.3c-0.1,0-0.2,0-0.3-0.1c-0.3-0.1-0.6-0.1-1-0.2
		c-0.1,0-0.3,0-0.4-0.1c-0.3,0-0.6-0.1-0.8-0.1c-0.2,0-0.4,0-0.6,0s-0.4,0-0.6,0c-0.3,0-0.5,0-0.8,0.1c-0.1,0-0.3,0-0.4,0.1
		c-0.3,0.1-0.6,0.1-1,0.2c-0.1,0-0.2,0-0.3,0.1c-0.4,0.1-0.7,0.2-1.1,0.3c-0.1,0-0.1,0-0.1,0.1c-0.4,0.1-0.7,0.3-1.1,0.4h-0.1
		c-0.3,0.1-0.6,0.3-0.9,0.4c-2.8,1.4-4.8,3.7-6,6.3L443,222.2l15.2,29.3l15.6-30L627,516.8c3.4,6.6,11.5,9.2,18.2,5.8
		C652.1,519.1,654.7,511,651.2,504.3z"/>
	<circle class="st1" cx="472.1" cy="144.4" r="15.9"/>
</g>
<path class="st0" d="M566,500.8L371.7,126.2c-1.4-3.1-3.8-5.7-7.1-7.4c-0.4-0.2-0.7-0.3-1.1-0.5h-0.1c-0.4-0.2-0.9-0.4-1.3-0.5
	c-0.1,0-0.1,0-0.2-0.1c-0.4-0.1-0.8-0.3-1.2-0.3c-0.1,0-0.2-0.1-0.3-0.1c-0.4-0.1-0.8-0.1-1.1-0.2c-0.2,0-0.3-0.1-0.5-0.1
	c-0.3,0-0.6-0.1-1-0.1c-0.3,0-0.5,0-0.7,0s-0.5,0-0.7,0c-0.3,0-0.6,0-0.9,0.1c-0.2,0-0.3,0-0.5,0.1c-0.4,0.1-0.7,0.1-1.1,0.2
	c-0.1,0-0.2,0.1-0.3,0.1c-0.4,0.1-0.8,0.2-1.2,0.3c-0.1,0-0.1,0-0.2,0.1c-0.4,0.1-0.9,0.3-1.3,0.5h-0.1c-0.4,0.2-0.7,0.3-1.1,0.5
	c-3.3,1.7-5.7,4.3-7.1,7.4L148.5,500.8c-4,7.8-1,17.4,6.8,21.4s17.4,1,21.4-6.8l180.5-348l180.5,348c4,7.8,13.6,10.8,21.4,6.8
	C567,518.2,570.1,508.6,566,500.8z"/>
<g>
	<path class="st2" d="M-685.1,665.6l-43.1-83l0,0c-0.2-0.4-0.4-0.7-0.7-1l0,0c-0.3-0.3-0.5-0.6-0.8-0.8l-0.1-0.1
		c-0.3-0.2-0.5-0.4-0.8-0.5c-0.1-0.1-0.2-0.1-0.3-0.2c0,0-0.1,0-0.1-0.1c-0.2-0.1-0.5-0.2-0.7-0.3c-0.1-0.1-0.2-0.1-0.4-0.1
		c-0.3-0.1-0.6-0.1-0.8-0.2c-0.1,0-0.3-0.1-0.4-0.1c-0.3,0-0.5,0-0.7,0s-0.4,0-0.6,0c-0.2,0-0.4,0.1-0.6,0.1
		c-0.2,0.1-0.5,0.1-0.7,0.1h-0.1c-0.2,0.1-0.3,0.1-0.5,0.2c-0.2,0.1-0.4,0.1-0.6,0.2c0,0-0.1,0-0.1,0.1c-0.2,0.1-0.4,0.2-0.5,0.3
		c-0.2,0.1-0.4,0.2-0.5,0.4c-0.1,0.1-0.2,0.2-0.3,0.3c-0.2,0.2-0.4,0.4-0.6,0.6c-0.1,0.1-0.1,0.2-0.2,0.3c-0.2,0.3-0.4,0.5-0.5,0.8
		l0,0l-43.1,82.9c-1.6,3.1-0.4,6.8,2.7,8.5c0.9,0.5,1.9,0.7,2.9,0.7c0.7,0,1.3-0.1,1.9-0.3c1.6-0.5,2.9-1.6,3.7-3.1l37.5-72.2
		l37.5,72.2c0.8,1.5,2.1,2.6,3.7,3.1c0.6,0.2,1.3,0.3,1.9,0.3c1,0,2-0.3,2.9-0.7c1.5-0.8,2.6-2.1,3.1-3.7
		C-684.2,668.8-684.3,667.1-685.1,665.6z"/>
	<g>
		<path class="st2" d="M-629.2,658.8c3.3,0,6-2.7,6-6v-61.7h61.1c3.3,0,6-2.7,6-6s-2.7-6-6-6h-67.1c-3.3,0-6,2.7-6,6v67.7
			C-635.2,656.1-632.5,658.8-629.2,658.8z"/>
		<path class="st2" d="M-562.1,662.9h-67.1c-3.3,0-6,2.7-6,6s2.7,6,6,6h67.1c3.3,0,6-2.7,6-6C-556,665.6-558.7,662.9-562.1,662.9z"
			/>
	</g>
	<g>
		<path class="st2" d="M-278.8,660.4h-81.4c-4,0-7.3,3.3-7.3,7.3s3.3,7.3,7.3,7.3h81.4c4,0,7.3-3.3,7.3-7.3
			S-274.8,660.4-278.8,660.4z"/>
		<path class="st2" d="M-360.2,634.3h53.4c4,0,7.3-3.3,7.3-7.3s-3.3-7.3-7.3-7.3h-53.4c-4,0-7.3,3.3-7.3,7.3
			S-364.2,634.3-360.2,634.3z"/>
		<path class="st2" d="M-360.2,593.6h81.4c4,0,7.3-3.3,7.3-7.3s-3.3-7.3-7.3-7.3h-81.4c-4,0-7.3,3.3-7.3,7.3
			S-364.2,593.6-360.2,593.6z"/>
	</g>
	<g>
		<path class="st2" d="M-498.3,579c-4,0-7.3,3.3-7.3,7.3v81.4c0,4,3.3,7.3,7.3,7.3s7.3-3.3,7.3-7.3v-81.4
			C-491,582.3-494.3,579-498.3,579z"/>
		<path class="st2" d="M-457.6,579c-4,0-7.3,3.3-7.3,7.3v64.1c0,4,3.3,7.3,7.3,7.3s7.3-3.3,7.3-7.3v-64.1
			C-450.3,582.3-453.6,579-457.6,579z"/>
		<path class="st2" d="M-416.9,579c-4,0-7.3,3.3-7.3,7.3v81.4c0,4,3.3,7.3,7.3,7.3s7.3-3.3,7.3-7.3v-81.4
			C-409.6,582.3-412.9,579-416.9,579z"/>
	</g>
	<path class="st2" d="M-275.8,504.3l-164.9-317.9c-1.2-2.6-3.3-4.9-6-6.3c-0.3-0.2-0.6-0.3-0.9-0.4c0,0,0,0-0.1,0
		c-0.4-0.2-0.7-0.3-1.1-0.4c-0.1,0-0.1,0-0.1-0.1c-0.4-0.1-0.7-0.2-1.1-0.3c-0.1,0-0.2,0-0.3-0.1c-0.3-0.1-0.6-0.1-1-0.2
		c-0.1,0-0.3,0-0.4-0.1c-0.3,0-0.6-0.1-0.8-0.1c-0.2,0-0.4,0-0.6,0s-0.4,0-0.6,0c-0.3,0-0.5,0-0.8,0.1c-0.1,0-0.3,0-0.4,0.1
		c-0.3,0.1-0.6,0.1-1,0.2c-0.1,0-0.2,0-0.3,0.1c-0.4,0.1-0.7,0.2-1.1,0.3c-0.1,0-0.1,0-0.1,0.1c-0.4,0.1-0.7,0.3-1.1,0.4h-0.1
		c-0.3,0.1-0.6,0.3-0.9,0.4c-2.8,1.4-4.8,3.7-6,6.3l-18.5,35.7l15.2,29.3l15.6-30L-300,516.7c3.4,6.6,11.5,9.2,18.2,5.8
		C-274.9,519.1-272.3,511-275.8,504.3z"/>
	<circle class="st2" cx="-454.9" cy="144.4" r="15.9"/>
</g>
<path class="st3" d="M-361,500.8l-194.3-374.6c-1.4-3.1-3.8-5.7-7.1-7.4c-0.4-0.2-0.7-0.3-1.1-0.5h-0.1c-0.4-0.2-0.9-0.4-1.3-0.5
	c-0.1,0-0.1,0-0.2-0.1c-0.4-0.1-0.8-0.3-1.2-0.3c-0.1,0-0.2-0.1-0.3-0.1c-0.4-0.1-0.8-0.1-1.1-0.2c-0.2,0-0.3-0.1-0.5-0.1
	c-0.3,0-0.6-0.1-1-0.1c-0.3,0-0.5,0-0.7,0c-0.3,0-0.5,0-0.7,0c-0.3,0-0.6,0-0.9,0.1c-0.2,0-0.3,0-0.5,0.1c-0.4,0.1-0.7,0.1-1.1,0.2
	c-0.1,0-0.2,0.1-0.3,0.1c-0.4,0.1-0.8,0.2-1.2,0.3c-0.1,0-0.1,0-0.2,0.1c-0.4,0.1-0.9,0.3-1.3,0.5h-0.1c-0.4,0.2-0.7,0.3-1.1,0.5
	c-3.3,1.7-5.7,4.3-7.1,7.4l-194.4,374.7c-4,7.8-1,17.4,6.8,21.4s17.4,1,21.4-6.8l180.5-348l180.5,348c4,7.8,13.6,10.8,21.4,6.8
	C-360,518.2-356.9,508.6-361,500.8z"/>
</svg>
